<?xml version="1.0" encoding="iso-8859-1"?>
<!-- Generator: Adobe Illustrator 19.0.0, SVG Export Plug-In . SVG Version: 6.00 Build 0)  -->
<svg version="1.1" id="Layer_1" xmlns="http://www.w3.org/2000/svg" xmlns:xlink="http://www.w3.org/1999/xlink" x="0px" y="0px"
	 viewBox="0 0 511.981 511.981" style="enable-background:new 0 0 511.981 511.981;" xml:space="preserve">
<path style="fill:#F5BA45;" d="M138.659,202.648c-17.671,0-31.999,14.328-31.999,31.999s14.328,31.999,31.999,31.999
	s31.999-14.328,31.999-31.999S156.331,202.648,138.659,202.648z M138.659,245.318c-5.875,0-10.664-4.781-10.664-10.671
	c0-5.875,4.789-10.656,10.664-10.656c5.883,0,10.672,4.781,10.672,10.656C149.331,240.537,144.542,245.318,138.659,245.318z"/>
<path style="fill:#FECD57;" d="M117.332,245.318c-17.671,0-31.999,14.328-31.999,32c0,17.671,14.328,31.998,31.999,31.998
	s31.999-14.327,31.999-31.998C149.331,259.646,135.003,245.318,117.332,245.318z M117.332,287.99
	c-5.883,0-10.672-4.78-10.672-10.671c0-5.875,4.789-10.672,10.672-10.672c5.875,0,10.664,4.797,10.664,10.672
	C127.996,283.209,123.207,287.99,117.332,287.99z"/>
<path style="fill:#F5BA45;" d="M95.997,287.99c-17.671,0-31.999,14.328-31.999,31.999c0,17.671,14.328,31.999,31.999,31.999
	s31.999-14.328,31.999-31.999C127.996,302.318,113.668,287.99,95.997,287.99z M95.997,330.643c-5.882,0-10.664-4.781-10.664-10.655
	c0-5.891,4.781-10.672,10.664-10.672c5.883,0,10.664,4.781,10.664,10.672C106.66,325.862,101.879,330.643,95.997,330.643z"/>
<g>
	<path style="fill:#FECD57;" d="M74.662,330.643c-17.671,0-31.999,14.328-31.999,31.999c0,17.687,14.328,31.999,31.999,31.999
		s31.999-14.312,31.999-31.999C106.66,344.971,92.333,330.643,74.662,330.643z M74.662,373.313c-5.875,0-10.664-4.78-10.664-10.671
		c0-5.875,4.789-10.655,10.664-10.655c5.883,0,10.671,4.78,10.671,10.655C85.333,368.534,80.545,373.313,74.662,373.313z"/>
	<path style="fill:#FECD57;" d="M31.999,415.985C14.328,415.985,0,430.297,0,447.982c0,17.672,14.328,32,31.999,32
		s31.999-14.328,31.999-32C63.998,430.297,49.671,415.985,31.999,415.985z M31.999,458.638c-5.882,0-10.664-4.781-10.664-10.656
		c0-5.89,4.781-10.67,10.664-10.67s10.664,4.78,10.664,10.67C42.663,453.857,37.882,458.638,31.999,458.638z"/>
</g>
<path style="fill:#F5BA45;" d="M53.334,373.313c-17.671,0-31.999,14.328-31.999,32c0,17.671,14.327,31.999,31.999,31.999
	s31.999-14.328,31.999-31.999C85.333,387.641,71.006,373.313,53.334,373.313z M53.334,415.985c-5.882,0-10.671-4.781-10.671-10.672
	c0-5.875,4.789-10.672,10.671-10.672c5.875,0,10.664,4.797,10.664,10.672C63.998,411.204,59.209,415.985,53.334,415.985z"/>
<path style="fill:#FECD57;" d="M170.658,159.993c-23.561,0-42.662,19.094-42.662,42.655s19.101,42.67,42.662,42.67
	c23.57,0,42.671-19.108,42.671-42.67S194.228,159.993,170.658,159.993z M170.658,223.992c-11.757,0-21.327-9.577-21.327-21.343
	c0-11.75,9.569-21.327,21.327-21.327c11.766,0,21.335,9.577,21.335,21.327C191.993,214.414,182.424,223.992,170.658,223.992z"/>
<path style="fill:#4FC0E8;" d="M341.332,362.643c-42.748,0-82.927-16.64-113.145-46.857
	c-30.217-30.217-46.857-70.389-46.857-113.137c0-42.733,16.64-82.903,46.857-113.121c30.218-30.218,70.396-46.873,113.145-46.873
	c42.717,0,82.903,16.655,113.12,46.873c30.219,30.218,46.874,70.388,46.874,113.121c0,42.748-16.655,82.92-46.874,113.137
	C424.235,346.003,384.049,362.643,341.332,362.643z"/>
<path style="opacity:0.2;fill:#FFFFFF;enable-background:new    ;" d="M454.452,89.527c-30.217-30.218-70.403-46.873-113.12-46.873
	c-5.391,0-10.719,0.266-16,0.797c36.687,3.609,70.717,19.655,97.122,46.076c30.217,30.218,46.873,70.388,46.873,113.121
	c0,42.748-16.656,82.92-46.873,113.137c-26.405,26.421-60.436,42.451-97.122,46.076c5.281,0.516,10.609,0.781,16,0.781
	c42.717,0,82.903-16.64,113.12-46.857c30.219-30.217,46.874-70.389,46.874-113.137C501.326,159.915,484.671,119.745,454.452,89.527z
	"/>
<path style="fill:#F5BA45;" d="M341.332,31.998c-94.262,0-170.674,76.403-170.674,170.65c0,94.263,76.412,170.665,170.674,170.665
	c94.247,0,170.649-76.402,170.649-170.665C511.981,108.401,435.579,31.998,341.332,31.998z M446.921,308.238
	c-13.732,13.733-29.7,24.499-47.481,32.015c-18.391,7.781-37.952,11.734-58.107,11.734c-20.187,0-39.732-3.953-58.122-11.734
	c-17.789-7.516-33.757-18.281-47.476-32.015c-13.727-13.718-24.491-29.686-32.015-47.467c-7.781-18.391-11.726-37.952-11.726-58.123
	c0-20.155,3.945-39.718,11.726-58.107c7.523-17.78,18.288-33.749,32.015-47.482c13.718-13.718,29.687-24.483,47.476-31.999
	c18.39-7.781,37.936-11.734,58.122-11.734c20.155,0,39.717,3.953,58.107,11.734c17.781,7.516,33.749,18.281,47.481,31.999
	c13.719,13.733,24.484,29.702,32,47.482c7.781,18.39,11.718,37.952,11.718,58.107c0,20.171-3.937,39.732-11.718,58.123
	C471.405,278.552,460.639,294.521,446.921,308.238z"/>
<g>
</g>
<g>
</g>
<g>
</g>
<g>
</g>
<g>
</g>
<g>
</g>
<g>
</g>
<g>
</g>
<g>
</g>
<g>
</g>
<g>
</g>
<g>
</g>
<g>
</g>
<g>
</g>
<g>
</g>
</svg>
